# xmcd CD database file
#
# Track frame offsets:
#	150
#	16230
#	34167
#	48990
#	65107
#	83312
#	100490
#	118735
#	132730
#	149282
#	163960
#	177417
#	194492
#	214200
#
# Disc length: 3092 seconds
#
# Revision: 0
# Processed by: cddbd v1.5.2PL0 Copyright (c) Steve Scherf et al.
# Submitted via: CDex 1.70beta2
#
DISCID=d40c120e
DTITLE=David Evans - Needy Time
DYEAR=2007
DGENRE=Blues
TTITLE0=Bring The Boys Back Home
TTITLE1=Now Is A Needy Time
TTITLE2=Highway 51
TTITLE3=Adam and Eve in the Garden of Eden
TTITLE4=Old Millington Winery Blues
TTITLE5=God Rode in the Windstorm
TTITLE6=Brownsville Blues
TTITLE7=Tappin' That Thing
TTITLE8=Bottle Up and Go
TTITLE9=On The Road Again
TTITLE10=Baby, Please Don't Go
TTITLE11=Loving Blues
TTITLE12=Who's That Yonder
TTITLE13=Wartime Blues
EXTD=YEAR: 2007
EXTT0=
EXTT1=
EXTT2=
EXTT3=
EXTT4=
EXTT5=
EXTT6=
EXTT7=
EXTT8=
EXTT9=
EXTT10=
EXTT11=
EXTT12=
EXTT13=
PLAYORDER=
